# xmcd CD database file
# Copyright (C) 1993-1996 Ti Kan
#
# Track frame offsets:
# 150
# 13607
# 25635
# 40302
# 57217
# 72585
# 91185
# 104292
# 118470
# 131795
# 150132
# 166350
# 181595
# 194737
# 209165
# 233025
# 250517
# 272387
# 285580
# 303225
# 320432
#
# Disc length: 4454 seconds
#
# Revision: 0
# Processed by: cddbd v1.4b41PL1 Copyright (c) Steve Scherf et al.
# Submitted via: inCDius 1.1b5
#
DISCID=1f116415
DTITLE=Various Artist - Rhythm and Blues - 1970
DYEAR=1900
DGENRE=
TTITLE0=The Tears of a Clown/Robinson, Smokey and The Miracles
TTITLE1=Give Me Just a Little More Time/The Chairmen of the Board
TTITLE2=O-o-h Child/The 5 Stairsteps
TTITLE3=Stoned Love/The Supremes
TTITLE4=Didn't I (Blow Your Mind This Time)/The Delfonics
TTITLE5=Ball of Confusion (That's What The World Is Today)/The Temtations
TTITLE6=I Want You Back/The Jackson Five
TTITLE7=Patches/Carter, Clarence
TTITLE8=Don't Play That Song/Franklin, Aretha
TTITLE9=The Thrill Is Gone/King, B. B. 
TTITLE10=Hey There Lonely Girl/Holman, Eddie
TTITLE11=War/Starr, Edwin
TTITLE12=Band of Gold/Payne, Freda
TTITLE13=It's A Shame/The Spinners
TTITLE14=Get Up I Feel Like Being a Sex Machine/Brown, James
TTITLE15=Express Yourself/Wright, Charles and The Watts 103rd Street Band
TTITLE16=Thank You (Falettinme Be Mice Elf Agin)/Sly and The Family Stone
TTITLE17=Turn Back The Hands of Time/Davis, Tyrone
TTITLE18=Ain't No Mountain High Enough/Ross, Diana
TTITLE19=Rainy Night in Georgia/Benton, Brook
TTITLE20=The Bells/The Originals
EXTD=Time-Life Music RHD-18
EXTT0=
EXTT1=
EXTT2=
EXTT3=
EXTT4=
EXTT5=
EXTT6=
EXTT7=
EXTT8=
EXTT9=
EXTT10=
EXTT11=
EXTT12=
EXTT13=
EXTT14=
EXTT15=
EXTT16=
EXTT17=
EXTT18=
EXTT19=
EXTT20=
PLAYORDER=
